<svg xmlns="http://www.w3.org/2000/svg" xmlns:xlink="http://www.w3.org/1999/xlink" width="1080" zoomAndPan="magnify" viewBox="0 0 810 809.999993" height="1080" preserveAspectRatio="xMidYMid meet" version="1.0"><defs><clipPath id="550be07733"><path d="M 310.628906 15 L 571.097656 15 L 571.097656 795 L 310.628906 795 Z M 310.628906 15 " clip-rule="nonzero"/></clipPath><clipPath id="59cc317cf7"><path d="M 310.628906 15 L 497.972656 15 L 571.097656 405 L 497.972656 795 L 310.628906 795 L 383.753906 405 Z M 310.628906 15 " clip-rule="nonzero"/></clipPath><clipPath id="6c27276fbd"><path d="M 238.898438 15 L 497.921875 15 L 497.921875 665.003906 L 238.898438 665.003906 Z M 238.898438 15 " clip-rule="nonzero"/></clipPath><clipPath id="5424e1ac13"><path d="M 497.921875 665.003906 L 312.023438 665.003906 L 238.898438 340 L 312.023438 15 L 497.921875 15 L 424.796875 340 Z M 497.921875 665.003906 " clip-rule="nonzero"/></clipPath></defs><g clip-path="url(#550be07733)"><g clip-path="url(#59cc317cf7)"><path fill="#ffa198" d="M 310.628906 15 L 571.097656 15 L 571.097656 795 L 310.628906 795 Z M 310.628906 15 " fill-opacity="1" fill-rule="nonzero"/></g></g><g clip-path="url(#6c27276fbd)"><g clip-path="url(#5424e1ac13)"><path fill="#ff1700" d="M 497.921875 665.003906 L 238.898438 665.003906 L 238.898438 15 L 497.921875 15 Z M 497.921875 665.003906 " fill-opacity="1" fill-rule="nonzero"/></g></g></svg>