<svg xmlns="http://www.w3.org/2000/svg" xmlns:xlink="http://www.w3.org/1999/xlink" width="1080" zoomAndPan="magnify" viewBox="0 0 810 809.999993" height="1080" preserveAspectRatio="xMidYMid meet" version="1.0"><defs><clipPath id="dc6758bea8"><path d="M 75 0 L 735 0 C 776.421875 0 810 33.578125 810 75 L 810 735 C 810 776.421875 776.421875 810 735 810 L 75 810 C 33.578125 810 0 776.421875 0 735 L 0 75 C 0 33.578125 33.578125 0 75 0 Z M 75 0 " clip-rule="nonzero"/></clipPath><clipPath id="891b26106f"><path d="M 37.242188 202.492188 L 172.492188 202.492188 L 172.492188 607.507812 L 37.242188 607.507812 Z M 37.242188 202.492188 " clip-rule="nonzero"/></clipPath><clipPath id="a9ce36025c"><path d="M 37.242188 202.492188 L 134.523438 202.492188 L 172.492188 405 L 134.523438 607.507812 L 37.242188 607.507812 L 75.214844 405 Z M 37.242188 202.492188 " clip-rule="nonzero"/></clipPath><clipPath id="d9ac82f350"><path d="M 0 202.492188 L 134.496094 202.492188 L 134.496094 573.753906 L 0 573.753906 Z M 0 202.492188 " clip-rule="nonzero"/></clipPath><clipPath id="59a01266a7"><path d="M 134.496094 573.753906 L 37.96875 573.753906 L 0 388.121094 L 37.96875 202.492188 L 134.496094 202.492188 L 96.527344 388.121094 Z M 134.496094 573.753906 " clip-rule="nonzero"/></clipPath><clipPath id="a0c858b1a9"><path d="M 164.734375 202.492188 L 299.980469 202.492188 L 299.980469 607.507812 L 164.734375 607.507812 Z M 164.734375 202.492188 " clip-rule="nonzero"/></clipPath><clipPath id="cb23226c5d"><path d="M 164.734375 202.492188 L 262.011719 202.492188 L 299.980469 405 L 262.011719 607.507812 L 164.734375 607.507812 L 202.703125 405 Z M 164.734375 202.492188 " clip-rule="nonzero"/></clipPath><clipPath id="4245abaa5a"><path d="M 127.488281 202.492188 L 261.988281 202.492188 L 261.988281 540.003906 L 127.488281 540.003906 Z M 127.488281 202.492188 " clip-rule="nonzero"/></clipPath><clipPath id="6d61412e47"><path d="M 261.984375 540.003906 L 165.457031 540.003906 L 127.488281 371.246094 L 165.457031 202.492188 L 261.984375 202.492188 L 224.015625 371.246094 Z M 261.984375 540.003906 " clip-rule="nonzero"/></clipPath><clipPath id="e61df391a1"><path d="M 292.222656 202.492188 L 427.472656 202.492188 L 427.472656 607.507812 L 292.222656 607.507812 Z M 292.222656 202.492188 " clip-rule="nonzero"/></clipPath><clipPath id="e82b023d17"><path d="M 292.222656 202.492188 L 389.503906 202.492188 L 427.472656 405 L 389.503906 607.507812 L 292.222656 607.507812 L 330.195312 405 Z M 292.222656 202.492188 " clip-rule="nonzero"/></clipPath><clipPath id="b4af261c8b"><path d="M 254.980469 202.492188 L 389.476562 202.492188 L 389.476562 506.253906 L 254.980469 506.253906 Z M 254.980469 202.492188 " clip-rule="nonzero"/></clipPath><clipPath id="6ee72ae0ab"><path d="M 389.476562 506.253906 L 292.949219 506.253906 L 254.980469 354.371094 L 292.949219 202.492188 L 389.476562 202.492188 L 351.507812 354.371094 Z M 389.476562 506.253906 " clip-rule="nonzero"/></clipPath><clipPath id="f127440e3b"><path d="M 419.757812 202.492188 L 555.003906 202.492188 L 555.003906 607.507812 L 419.757812 607.507812 Z M 419.757812 202.492188 " clip-rule="nonzero"/></clipPath><clipPath id="aab4b53b91"><path d="M 419.757812 202.492188 L 517.035156 202.492188 L 555.003906 405 L 517.035156 607.507812 L 419.757812 607.507812 L 457.726562 405 Z M 419.757812 202.492188 " clip-rule="nonzero"/></clipPath><clipPath id="128f1779b2"><path d="M 382.511719 202.492188 L 517.007812 202.492188 L 517.007812 472.503906 L 382.511719 472.503906 Z M 382.511719 202.492188 " clip-rule="nonzero"/></clipPath><clipPath id="5af14d878c"><path d="M 517.007812 472.503906 L 420.480469 472.503906 L 382.511719 337.496094 L 420.480469 202.492188 L 517.007812 202.492188 L 479.039062 337.496094 Z M 517.007812 472.503906 " clip-rule="nonzero"/></clipPath><clipPath id="d174a0647e"><path d="M 547.21875 202.492188 L 682.46875 202.492188 L 682.46875 607.507812 L 547.21875 607.507812 Z M 547.21875 202.492188 " clip-rule="nonzero"/></clipPath><clipPath id="b8fc8431bc"><path d="M 547.21875 202.492188 L 644.496094 202.492188 L 682.46875 405 L 644.496094 607.507812 L 547.21875 607.507812 L 585.1875 405 Z M 547.21875 202.492188 " clip-rule="nonzero"/></clipPath><clipPath id="c1a2162625"><path d="M 509.972656 202.492188 L 644.472656 202.492188 L 644.472656 438.753906 L 509.972656 438.753906 Z M 509.972656 202.492188 " clip-rule="nonzero"/></clipPath><clipPath id="b83de87626"><path d="M 644.472656 438.753906 L 547.941406 438.753906 L 509.972656 320.621094 L 547.941406 202.492188 L 644.472656 202.492188 L 606.5 320.621094 Z M 644.472656 438.753906 " clip-rule="nonzero"/></clipPath><clipPath id="54067f67ef"><path d="M 674.753906 202.492188 L 810 202.492188 L 810 607.507812 L 674.753906 607.507812 Z M 674.753906 202.492188 " clip-rule="nonzero"/></clipPath><clipPath id="f85fa63c3c"><path d="M 674.753906 202.492188 L 772.03125 202.492188 L 810 405 L 772.03125 607.507812 L 674.753906 607.507812 L 712.722656 405 Z M 674.753906 202.492188 " clip-rule="nonzero"/></clipPath><clipPath id="08f52dbe7f"><path d="M 637.507812 202.484375 L 772.003906 202.484375 L 772.003906 404.992188 L 637.507812 404.992188 Z M 637.507812 202.484375 " clip-rule="nonzero"/></clipPath><clipPath id="4f43c6e556"><path d="M 772.003906 404.992188 L 675.476562 404.992188 L 637.507812 303.738281 L 675.476562 202.484375 L 772.003906 202.484375 L 734.035156 303.738281 Z M 772.003906 404.992188 " clip-rule="nonzero"/></clipPath></defs><g clip-path="url(#dc6758bea8)"><rect x="-81" width="972" fill="#ffffff" y="-80.999999" height="971.999992" fill-opacity="1"/></g><g clip-path="url(#891b26106f)"><g clip-path="url(#a9ce36025c)"><path fill="#a8a8a8" d="M 37.242188 202.492188 L 172.492188 202.492188 L 172.492188 607.507812 L 37.242188 607.507812 Z M 37.242188 202.492188 " fill-opacity="1" fill-rule="nonzero"/></g></g><g clip-path="url(#d9ac82f350)"><g clip-path="url(#59a01266a7)"><path fill="#000000" d="M 134.496094 573.753906 L 0 573.753906 L 0 202.492188 L 134.496094 202.492188 Z M 134.496094 573.753906 " fill-opacity="1" fill-rule="nonzero"/></g></g><g clip-path="url(#a0c858b1a9)"><g clip-path="url(#cb23226c5d)"><path fill="#ffa198" d="M 164.734375 202.492188 L 299.980469 202.492188 L 299.980469 607.507812 L 164.734375 607.507812 Z M 164.734375 202.492188 " fill-opacity="1" fill-rule="nonzero"/></g></g><g clip-path="url(#4245abaa5a)"><g clip-path="url(#6d61412e47)"><path fill="#ff1700" d="M 261.984375 540.003906 L 127.488281 540.003906 L 127.488281 202.492188 L 261.984375 202.492188 Z M 261.984375 540.003906 " fill-opacity="1" fill-rule="nonzero"/></g></g><g clip-path="url(#e61df391a1)"><g clip-path="url(#e82b023d17)"><path fill="#d586ff" d="M 292.222656 202.492188 L 427.472656 202.492188 L 427.472656 607.507812 L 292.222656 607.507812 Z M 292.222656 202.492188 " fill-opacity="1" fill-rule="nonzero"/></g></g><g clip-path="url(#b4af261c8b)"><g clip-path="url(#6ee72ae0ab)"><path fill="#a600ff" d="M 389.476562 506.253906 L 254.980469 506.253906 L 254.980469 202.492188 L 389.476562 202.492188 Z M 389.476562 506.253906 " fill-opacity="1" fill-rule="nonzero"/></g></g><g clip-path="url(#f127440e3b)"><g clip-path="url(#aab4b53b91)"><path fill="#ffeb81" d="M 419.757812 202.492188 L 555.003906 202.492188 L 555.003906 607.507812 L 419.757812 607.507812 Z M 419.757812 202.492188 " fill-opacity="1" fill-rule="nonzero"/></g></g><g clip-path="url(#128f1779b2)"><g clip-path="url(#5af14d878c)"><path fill="#ffd600" d="M 517.007812 472.503906 L 382.511719 472.503906 L 382.511719 202.492188 L 517.007812 202.492188 Z M 517.007812 472.503906 " fill-opacity="1" fill-rule="nonzero"/></g></g><g clip-path="url(#d174a0647e)"><g clip-path="url(#b8fc8431bc)"><path fill="#80c2ff" d="M 547.21875 202.492188 L 682.46875 202.492188 L 682.46875 607.507812 L 547.21875 607.507812 Z M 547.21875 202.492188 " fill-opacity="1" fill-rule="nonzero"/></g></g><g clip-path="url(#c1a2162625)"><g clip-path="url(#b83de87626)"><path fill="#0085ff" d="M 644.472656 438.753906 L 509.972656 438.753906 L 509.972656 202.492188 L 644.472656 202.492188 Z M 644.472656 438.753906 " fill-opacity="1" fill-rule="nonzero"/></g></g><g clip-path="url(#54067f67ef)"><g clip-path="url(#f85fa63c3c)"><path fill="#ff9b63" d="M 674.753906 202.492188 L 810 202.492188 L 810 607.507812 L 674.753906 607.507812 Z M 674.753906 202.492188 " fill-opacity="1" fill-rule="nonzero"/></g></g><g clip-path="url(#08f52dbe7f)"><g clip-path="url(#4f43c6e556)"><path fill="#ff5c00" d="M 772.003906 404.992188 L 637.507812 404.992188 L 637.507812 202.484375 L 772.003906 202.484375 Z M 772.003906 404.992188 " fill-opacity="1" fill-rule="nonzero"/></g></g></svg>