<svg xmlns="http://www.w3.org/2000/svg" xmlns:xlink="http://www.w3.org/1999/xlink" width="1080" zoomAndPan="magnify" viewBox="0 0 810 406.499988" height="542" preserveAspectRatio="xMidYMid meet" version="1.0"><defs><clipPath id="e3f6d1d2cf"><path d="M 37.695312 0.742188 L 172.777344 0.742188 L 172.777344 405.257812 L 37.695312 405.257812 Z M 37.695312 0.742188 " clip-rule="nonzero"/></clipPath><clipPath id="7040b270c1"><path d="M 37.695312 0.742188 L 134.855469 0.742188 L 172.777344 203 L 134.855469 405.257812 L 37.695312 405.257812 L 75.617188 203 Z M 37.695312 0.742188 " clip-rule="nonzero"/></clipPath><clipPath id="3b354d0cdc"><path d="M 0.496094 0.738281 L 134.828125 0.738281 L 134.828125 371.546875 L 0.496094 371.546875 Z M 0.496094 0.738281 " clip-rule="nonzero"/></clipPath><clipPath id="ab19d59d9d"><path d="M 134.828125 371.546875 L 38.417969 371.546875 L 0.496094 186.144531 L 38.417969 0.738281 L 134.828125 0.738281 L 96.90625 186.144531 Z M 134.828125 371.546875 " clip-rule="nonzero"/></clipPath><clipPath id="941e74b16b"><path d="M 165.027344 0.742188 L 300.109375 0.742188 L 300.109375 405.257812 L 165.027344 405.257812 Z M 165.027344 0.742188 " clip-rule="nonzero"/></clipPath><clipPath id="1699aa09c4"><path d="M 165.027344 0.742188 L 262.1875 0.742188 L 300.109375 203 L 262.1875 405.257812 L 165.027344 405.257812 L 202.953125 203 Z M 165.027344 0.742188 " clip-rule="nonzero"/></clipPath><clipPath id="d0c27cee76"><path d="M 127.828125 0.738281 L 262.160156 0.738281 L 262.160156 337.839844 L 127.828125 337.839844 Z M 127.828125 0.738281 " clip-rule="nonzero"/></clipPath><clipPath id="8518447715"><path d="M 262.160156 337.839844 L 165.753906 337.839844 L 127.828125 169.289062 L 165.753906 0.738281 L 262.160156 0.738281 L 224.238281 169.289062 Z M 262.160156 337.839844 " clip-rule="nonzero"/></clipPath><clipPath id="b546ba8e7b"><path d="M 292.363281 0.742188 L 427.445312 0.742188 L 427.445312 405.257812 L 292.363281 405.257812 Z M 292.363281 0.742188 " clip-rule="nonzero"/></clipPath><clipPath id="1df8b922ae"><path d="M 292.363281 0.742188 L 389.519531 0.742188 L 427.445312 203 L 389.519531 405.257812 L 292.363281 405.257812 L 330.285156 203 Z M 292.363281 0.742188 " clip-rule="nonzero"/></clipPath><clipPath id="aa53c8db78"><path d="M 255.164062 0.738281 L 389.496094 0.738281 L 389.496094 304.128906 L 255.164062 304.128906 Z M 255.164062 0.738281 " clip-rule="nonzero"/></clipPath><clipPath id="f3da465ecb"><path d="M 389.496094 304.128906 L 293.085938 304.128906 L 255.164062 152.433594 L 293.085938 0.738281 L 389.496094 0.738281 L 351.570312 152.433594 Z M 389.496094 304.128906 " clip-rule="nonzero"/></clipPath><clipPath id="54203d9e33"><path d="M 419.738281 0.742188 L 554.820312 0.742188 L 554.820312 405.257812 L 419.738281 405.257812 Z M 419.738281 0.742188 " clip-rule="nonzero"/></clipPath><clipPath id="c6cb0bad34"><path d="M 419.738281 0.742188 L 516.898438 0.742188 L 554.820312 203 L 516.898438 405.257812 L 419.738281 405.257812 L 457.664062 203 Z M 419.738281 0.742188 " clip-rule="nonzero"/></clipPath><clipPath id="3e7958b2ae"><path d="M 382.539062 0.738281 L 516.871094 0.738281 L 516.871094 270.421875 L 382.539062 270.421875 Z M 382.539062 0.738281 " clip-rule="nonzero"/></clipPath><clipPath id="71e359fb7a"><path d="M 516.871094 270.421875 L 420.460938 270.421875 L 382.539062 135.582031 L 420.460938 0.738281 L 516.871094 0.738281 L 478.949219 135.582031 Z M 516.871094 270.421875 " clip-rule="nonzero"/></clipPath><clipPath id="47324dcd4b"><path d="M 547.042969 0.742188 L 682.125 0.742188 L 682.125 405.257812 L 547.042969 405.257812 Z M 547.042969 0.742188 " clip-rule="nonzero"/></clipPath><clipPath id="a5fe9eeb8d"><path d="M 547.042969 0.742188 L 644.203125 0.742188 L 682.125 203 L 644.203125 405.257812 L 547.042969 405.257812 L 584.96875 203 Z M 547.042969 0.742188 " clip-rule="nonzero"/></clipPath><clipPath id="5889d9e762"><path d="M 509.84375 0.738281 L 644.175781 0.738281 L 644.175781 236.714844 L 509.84375 236.714844 Z M 509.84375 0.738281 " clip-rule="nonzero"/></clipPath><clipPath id="7fd6fe105f"><path d="M 644.175781 236.714844 L 547.769531 236.714844 L 509.84375 118.726562 L 547.769531 0.738281 L 644.175781 0.738281 L 606.253906 118.726562 Z M 644.175781 236.714844 " clip-rule="nonzero"/></clipPath><clipPath id="026716e201"><path d="M 674.421875 0.742188 L 809.5 0.742188 L 809.5 405.257812 L 674.421875 405.257812 Z M 674.421875 0.742188 " clip-rule="nonzero"/></clipPath><clipPath id="cb9427e40c"><path d="M 674.421875 0.742188 L 771.578125 0.742188 L 809.503906 203 L 771.578125 405.257812 L 674.421875 405.257812 L 712.34375 203 Z M 674.421875 0.742188 " clip-rule="nonzero"/></clipPath><clipPath id="490c5f879e"><path d="M 637.21875 0.734375 L 771.554688 0.734375 L 771.554688 202.992188 L 637.21875 202.992188 Z M 637.21875 0.734375 " clip-rule="nonzero"/></clipPath><clipPath id="535944d827"><path d="M 771.554688 202.992188 L 675.144531 202.992188 L 637.21875 101.863281 L 675.144531 0.734375 L 771.554688 0.734375 L 733.628906 101.863281 Z M 771.554688 202.992188 " clip-rule="nonzero"/></clipPath></defs><g clip-path="url(#e3f6d1d2cf)"><g clip-path="url(#7040b270c1)"><path fill="#a8a8a8" d="M 37.695312 0.742188 L 172.777344 0.742188 L 172.777344 405.257812 L 37.695312 405.257812 Z M 37.695312 0.742188 " fill-opacity="1" fill-rule="nonzero"/></g></g><g clip-path="url(#3b354d0cdc)"><g clip-path="url(#ab19d59d9d)"><path fill="#000000" d="M 134.828125 371.546875 L 0.496094 371.546875 L 0.496094 0.738281 L 134.828125 0.738281 Z M 134.828125 371.546875 " fill-opacity="1" fill-rule="nonzero"/></g></g><g clip-path="url(#941e74b16b)"><g clip-path="url(#1699aa09c4)"><path fill="#ffa198" d="M 165.027344 0.742188 L 300.109375 0.742188 L 300.109375 405.257812 L 165.027344 405.257812 Z M 165.027344 0.742188 " fill-opacity="1" fill-rule="nonzero"/></g></g><g clip-path="url(#d0c27cee76)"><g clip-path="url(#8518447715)"><path fill="#ff1700" d="M 262.160156 337.839844 L 127.828125 337.839844 L 127.828125 0.738281 L 262.160156 0.738281 Z M 262.160156 337.839844 " fill-opacity="1" fill-rule="nonzero"/></g></g><g clip-path="url(#b546ba8e7b)"><g clip-path="url(#1df8b922ae)"><path fill="#d586ff" d="M 292.363281 0.742188 L 427.445312 0.742188 L 427.445312 405.257812 L 292.363281 405.257812 Z M 292.363281 0.742188 " fill-opacity="1" fill-rule="nonzero"/></g></g><g clip-path="url(#aa53c8db78)"><g clip-path="url(#f3da465ecb)"><path fill="#a600ff" d="M 389.496094 304.128906 L 255.164062 304.128906 L 255.164062 0.738281 L 389.496094 0.738281 Z M 389.496094 304.128906 " fill-opacity="1" fill-rule="nonzero"/></g></g><g clip-path="url(#54203d9e33)"><g clip-path="url(#c6cb0bad34)"><path fill="#ffeb81" d="M 419.738281 0.742188 L 554.820312 0.742188 L 554.820312 405.257812 L 419.738281 405.257812 Z M 419.738281 0.742188 " fill-opacity="1" fill-rule="nonzero"/></g></g><g clip-path="url(#3e7958b2ae)"><g clip-path="url(#71e359fb7a)"><path fill="#ffd600" d="M 516.871094 270.421875 L 382.539062 270.421875 L 382.539062 0.738281 L 516.871094 0.738281 Z M 516.871094 270.421875 " fill-opacity="1" fill-rule="nonzero"/></g></g><g clip-path="url(#47324dcd4b)"><g clip-path="url(#a5fe9eeb8d)"><path fill="#80c2ff" d="M 547.042969 0.742188 L 682.125 0.742188 L 682.125 405.257812 L 547.042969 405.257812 Z M 547.042969 0.742188 " fill-opacity="1" fill-rule="nonzero"/></g></g><g clip-path="url(#5889d9e762)"><g clip-path="url(#7fd6fe105f)"><path fill="#0085ff" d="M 644.175781 236.714844 L 509.84375 236.714844 L 509.84375 0.738281 L 644.175781 0.738281 Z M 644.175781 236.714844 " fill-opacity="1" fill-rule="nonzero"/></g></g><g clip-path="url(#026716e201)"><g clip-path="url(#cb9427e40c)"><path fill="#ff9b63" d="M 674.421875 0.742188 L 809.503906 0.742188 L 809.503906 405.257812 L 674.421875 405.257812 Z M 674.421875 0.742188 " fill-opacity="1" fill-rule="nonzero"/></g></g><g clip-path="url(#490c5f879e)"><g clip-path="url(#535944d827)"><path fill="#ff5c00" d="M 771.554688 202.992188 L 637.21875 202.992188 L 637.21875 0.734375 L 771.554688 0.734375 Z M 771.554688 202.992188 " fill-opacity="1" fill-rule="nonzero"/></g></g></svg>